g _Combined Mesh [ConeHalf]
v 1.499704 1.37156 -0.4872829
v 0.7498522 2.94844 -0.2436413
v 0.6378624 2.94844 -0.4634336
v 1.275725 1.37156 -0.9268674
v 0.4634342 2.94844 -0.6378617
v 0.9268683 1.37156 -1.275724
v 1.576881 1.37156 2.819682E-07
v 0.7884408 2.94844 2.819682E-07
v 1.499703 1.37156 0.4872832
v 0.7498518 2.94844 0.2436417
v 1.275724 1.37156 0.9268675
v 0.637862 2.94844 0.4634339
v 0.9268677 1.37156 1.275724
v 0.4634339 2.94844 0.6378619
v 0.9268683 1.37156 -1.275724
v 0.4634342 2.94844 -0.6378617
v 0.2436419 2.94844 -0.7498514
v 0.4872835 1.37156 -1.499703
v 1.879789E-07 2.94844 -0.7884404
v 1.879789E-07 1.37156 -1.576881
v -0.2436415 2.94844 -0.7498513
v -0.4872831 1.37156 -1.499703
v -0.4634337 2.94844 -0.6378615
v -0.9268677 1.37156 -1.275723
v -0.9268677 1.37156 -1.275723
v -0.4634337 2.94844 -0.6378615
v -0.6378618 2.94844 -0.4634334
v -1.275724 1.37156 -0.9268671
v -0.7498516 2.94844 -0.2436412
v -1.499703 1.37156 -0.4872827
v -0.7884406 2.94844 2.819682E-07
v -1.576881 1.37156 2.819682E-07
v -0.7498516 2.94844 0.2436418
v -1.499703 1.37156 0.4872833
v -0.6378618 2.94844 0.463434
v -1.275724 1.37156 0.9268676
v -0.4634337 2.94844 0.637862
v -0.9268675 1.37156 1.275724
v -0.9268675 1.37156 1.275724
v -0.4634337 2.94844 0.637862
v -0.2436414 2.94844 0.7498516
v -0.487283 1.37156 1.499703
v 1.644815E-07 2.94844 0.7884406
v 1.409842E-07 1.37156 1.576881
v 0.2436417 2.94844 0.7498516
v 0.4872832 1.37156 1.499703
v 0.4634339 2.94844 0.6378619
v 0.9268677 1.37156 1.275724
v 0.4872835 1.37156 -1.499703
v 1.879789E-07 1.37156 -1.576881
v -0.4872831 1.37156 -1.499703
v 0.9268683 1.37156 -1.275724
v -0.9268677 1.37156 -1.275723
v 1.275725 1.37156 -0.9268674
v -1.275724 1.37156 -0.9268671
v 1.499704 1.37156 -0.4872829
v -1.499703 1.37156 -0.4872827
v 1.576881 1.37156 2.819682E-07
v -1.576881 1.37156 2.819682E-07
v 1.499703 1.37156 0.4872832
v -1.499703 1.37156 0.4872833
v 1.275724 1.37156 0.9268675
v -1.275724 1.37156 0.9268676
v 0.9268677 1.37156 1.275724
v -0.9268675 1.37156 1.275724
v 0.4872832 1.37156 1.499703
v -0.487283 1.37156 1.499703
v 1.409842E-07 1.37156 1.576881
v -0.2436415 2.94844 -0.7498513
v 1.879789E-07 2.94844 -0.7884404
v 0.2436419 2.94844 -0.7498514
v 0.4634342 2.94844 -0.6378617
v -0.4634337 2.94844 -0.6378615
v 0.6378624 2.94844 -0.4634336
v -0.6378618 2.94844 -0.4634334
v 0.7498522 2.94844 -0.2436413
v -0.7498516 2.94844 -0.2436412
v 0.7884408 2.94844 2.819682E-07
v -0.7884406 2.94844 2.819682E-07
v -0.7498516 2.94844 0.2436418
v 0.7498518 2.94844 0.2436417
v 0.637862 2.94844 0.4634339
v -0.6378618 2.94844 0.463434
v 0.4634339 2.94844 0.6378619
v -0.4634337 2.94844 0.637862
v 0.2436417 2.94844 0.7498516
v -0.2436414 2.94844 0.7498516
v 1.644815E-07 2.94844 0.7884406

vn 0.8506509 0.4472137 -0.2763923
vn 0.850651 0.4472136 -0.2763922
vn 0.7236067 0.4472137 -0.525731
vn 0.7236067 0.4472136 -0.5257309
vn 0.5257309 0.4472136 -0.7236066
vn 0.525731 0.4472136 -0.7236065
vn 0.8944272 0.4472135 0
vn 0.8944272 0.4472135 0
vn 0.8506508 0.4472134 0.2763931
vn 0.8506508 0.4472134 0.276393
vn 0.7236068 0.4472135 0.525731
vn 0.7236068 0.4472135 0.5257309
vn 0.5257311 0.4472135 0.7236065
vn 0.5257311 0.4472134 0.7236065
vn 0.525731 0.4472136 -0.7236065
vn 0.5257309 0.4472136 -0.7236066
vn 0.276393 0.4472136 -0.8506504
vn 0.276393 0.4472136 -0.8506504
vn 0 0.4472136 -0.8944268
vn 0 0.4472135 -0.8944268
vn -0.2763933 0.4472136 -0.8506504
vn -0.2763932 0.4472136 -0.8506504
vn -0.5257313 0.4472137 -0.7236063
vn -0.5257313 0.4472137 -0.7236063
vn -0.5257313 0.4472137 -0.7236063
vn -0.5257313 0.4472137 -0.7236063
vn -0.7236069 0.4472136 -0.5257307
vn -0.7236069 0.4472136 -0.5257307
vn -0.8506507 0.4472135 -0.276393
vn -0.8506507 0.4472135 -0.276393
vn -0.8944272 0.4472135 0
vn -0.8944272 0.4472135 0
vn -0.8506507 0.4472135 0.2763931
vn -0.8506507 0.4472135 0.276393
vn -0.7236068 0.4472135 0.525731
vn -0.7236067 0.4472135 0.525731
vn -0.525731 0.4472136 0.7236065
vn -0.525731 0.4472135 0.7236066
vn -0.525731 0.4472135 0.7236066
vn -0.525731 0.4472136 0.7236065
vn -0.2763932 0.4472135 0.8506504
vn -0.2763932 0.4472135 0.8506504
vn 0 0.4472136 0.8944269
vn 0 0.4472136 0.8944269
vn 0.2763934 0.4472134 0.8506504
vn 0.2763934 0.4472135 0.8506504
vn 0.5257311 0.4472134 0.7236065
vn 0.5257311 0.4472135 0.7236065
vn 0 -0.9999996 0
vn 0 -0.9999996 0
vn 0 -0.9999996 0
vn 0 -0.9999996 0
vn 0 -0.9999996 0
vn 0 -0.9999996 0
vn 0 -0.9999996 0
vn 0 -0.9999996 0
vn 0 -0.9999996 0
vn 0 -0.9999996 0
vn 0 -0.9999996 0
vn 0 -0.9999996 0
vn 0 -0.9999996 0
vn 0 -0.9999996 0
vn 0 -0.9999996 0
vn 0 -0.9999996 0
vn 0 -0.9999996 0
vn 0 -0.9999996 0
vn 0 -0.9999996 0
vn 0 -0.9999996 0
vn 0 0.9999996 0
vn 0 0.9999996 0
vn 0 0.9999996 0
vn 0 0.9999996 0
vn 0 0.9999996 0
vn 0 0.9999996 0
vn 0 0.9999996 0
vn 0 0.9999996 0
vn 0 0.9999996 0
vn 0 0.9999996 0
vn 0 0.9999996 0
vn 0 0.9999996 0
vn 0 0.9999996 0
vn 0 0.9999996 0
vn 0 0.9999996 0
vn 0 0.9999996 0
vn 0 0.9999996 0
vn 0 0.9999996 0
vn 0 0.9999996 0
vn 0 0.9999996 0

vt 0.6965569 0.02407243
vt 0.7439052 0.03138817
vt 0.7439052 0.02478856
vt 0.6965569 0.01087322
vt 0.7439052 0.01955114
vt 0.6965569 0.0003983891
vt 0.6965569 0.0387039
vt 0.7439052 0.0387039
vt 0.6965569 0.05333536
vt 0.7439052 0.04601963
vt 0.6965569 0.06653459
vt 0.7439052 0.05261924
vt 0.6965569 0.07700941
vt 0.7439052 0.05785666
vt 0.7387033 0.09584371
vt 0.6913552 0.1097591
vt 0.6913552 0.1163587
vt 0.7387033 0.1090429
vt 0.6913552 0.1236744
vt 0.7387033 0.1236744
vt 0.6913552 0.1309901
vt 0.7387033 0.1383059
vt 0.6913552 0.1375897
vt 0.7387033 0.1515051
vt 0.739854 0.1543693
vt 0.7872023 0.1352164
vt 0.7872023 0.129979
vt 0.739854 0.1438942
vt 0.7872023 0.1233794
vt 0.739854 0.1306951
vt 0.7872023 0.1160636
vt 0.739854 0.1160636
vt 0.7872023 0.1087479
vt 0.739854 0.1014322
vt 0.7872023 0.1021484
vt 0.739854 0.08823301
vt 0.7872023 0.09691083
vt 0.739854 0.07775808
vt 0.6428561 0.1515048
vt 0.6902044 0.1375895
vt 0.6902044 0.13099
vt 0.6428561 0.1383056
vt 0.6902044 0.1236742
vt 0.6428561 0.1236742
vt 0.6902044 0.1163585
vt 0.6428561 0.1090428
vt 0.6902044 0.1097589
vt 0.6428561 0.09584366
vt 0.6623535 0.002715844
vt 0.6477219 0.0003984406
vt 0.6330906 0.002715844
vt 0.6755527 0.009441126
vt 0.6198913 0.009441126
vt 0.6860276 0.01991605
vt 0.6094164 0.01991616
vt 0.6927528 0.03311528
vt 0.6026911 0.03311528
vt 0.6950703 0.04774674
vt 0.6003737 0.04774674
vt 0.6927528 0.06237815
vt 0.6026911 0.06237815
vt 0.6860275 0.07557737
vt 0.6094164 0.07557737
vt 0.6755525 0.0860523
vt 0.6198913 0.0860523
vt 0.6623535 0.09277763
vt 0.6330906 0.09277763
vt 0.6477219 0.09509504
vt 0.6465631 0.1832433
vt 0.6477218 0.1759276
vt 0.6465631 0.1686119
vt 0.6432005 0.1620122
vt 0.6432005 0.1898429
vt 0.6379631 0.1567748
vt 0.6379631 0.1950804
vt 0.6313635 0.1534122
vt 0.6313635 0.198443
vt 0.6240477 0.1522535
vt 0.6240477 0.1996016
vt 0.616732 0.198443
vt 0.616732 0.1534122
vt 0.6101324 0.1567748
vt 0.6101324 0.1950804
vt 0.6048949 0.1620122
vt 0.6048949 0.1898429
vt 0.6015323 0.1686119
vt 0.6015323 0.1832433
vt 0.6003737 0.1759276

f 2/2/2 1/1/1 3/3/3
f 3/3/3 1/1/1 4/4/4
f 3/3/3 4/4/4 5/5/5
f 5/5/5 4/4/4 6/6/6
f 2/2/2 7/7/7 1/1/1
f 8/8/8 7/7/7 2/2/2
f 8/8/8 9/9/9 7/7/7
f 10/10/10 9/9/9 8/8/8
f 10/10/10 11/11/11 9/9/9
f 12/12/12 11/11/11 10/10/10
f 12/12/12 13/13/13 11/11/11
f 14/14/14 13/13/13 12/12/12
f 16/16/16 15/15/15 17/17/17
f 17/17/17 15/15/15 18/18/18
f 17/17/17 18/18/18 19/19/19
f 19/19/19 18/18/18 20/20/20
f 19/19/19 20/20/20 21/21/21
f 21/21/21 20/20/20 22/22/22
f 21/21/21 22/22/22 23/23/23
f 23/23/23 22/22/22 24/24/24
f 26/26/26 25/25/25 27/27/27
f 27/27/27 25/25/25 28/28/28
f 27/27/27 28/28/28 29/29/29
f 29/29/29 28/28/28 30/30/30
f 29/29/29 30/30/30 31/31/31
f 31/31/31 30/30/30 32/32/32
f 31/31/31 32/32/32 33/33/33
f 33/33/33 32/32/32 34/34/34
f 33/33/33 34/34/34 35/35/35
f 35/35/35 34/34/34 36/36/36
f 35/35/35 36/36/36 37/37/37
f 37/37/37 36/36/36 38/38/38
f 40/40/40 39/39/39 41/41/41
f 41/41/41 39/39/39 42/42/42
f 41/41/41 42/42/42 43/43/43
f 43/43/43 42/42/42 44/44/44
f 43/43/43 44/44/44 45/45/45
f 45/45/45 44/44/44 46/46/46
f 45/45/45 46/46/46 47/47/47
f 47/47/47 46/46/46 48/48/48
f 50/50/50 49/49/49 51/51/51
f 52/52/52 51/51/51 49/49/49
f 53/53/53 51/51/51 52/52/52
f 54/54/54 53/53/53 52/52/52
f 55/55/55 53/53/53 54/54/54
f 56/56/56 55/55/55 54/54/54
f 57/57/57 55/55/55 56/56/56
f 58/58/58 57/57/57 56/56/56
f 59/59/59 57/57/57 58/58/58
f 60/60/60 59/59/59 58/58/58
f 61/61/61 59/59/59 60/60/60
f 62/62/62 61/61/61 60/60/60
f 63/63/63 61/61/61 62/62/62
f 64/64/64 63/63/63 62/62/62
f 65/65/65 63/63/63 64/64/64
f 66/66/66 65/65/65 64/64/64
f 67/67/67 65/65/65 66/66/66
f 68/68/68 67/67/67 66/66/66
f 70/70/70 69/69/69 71/71/71
f 72/72/72 71/71/71 69/69/69
f 73/73/73 72/72/72 69/69/69
f 74/74/74 72/72/72 73/73/73
f 75/75/75 74/74/74 73/73/73
f 76/76/76 74/74/74 75/75/75
f 77/77/77 76/76/76 75/75/75
f 78/78/78 76/76/76 77/77/77
f 79/79/79 78/78/78 77/77/77
f 80/80/80 78/78/78 79/79/79
f 81/81/81 78/78/78 80/80/80
f 82/82/82 81/81/81 80/80/80
f 83/83/83 82/82/82 80/80/80
f 84/84/84 82/82/82 83/83/83
f 85/85/85 84/84/84 83/83/83
f 86/86/86 84/84/84 85/85/85
f 87/87/87 86/86/86 85/85/85
f 88/88/88 86/86/86 87/87/87
