g _Combined Mesh [ConeHex]
v 0.7238697 1.022261 -1.253779
v -0.7238691 1.022261 -1.253779
v -1.447739 1.022261 -2.157299E-07
v 1.447739 1.022261 0
v -0.7238696 1.022261 1.253779
v 0.7238693 1.022261 1.253779
v 0.7238697 1.022261 -1.253779
v 0 3.917739 0
v -0.7238691 1.022261 -1.253779
v -0.7238691 1.022261 -1.253779
v 0 3.917739 0
v -1.447739 1.022261 -2.157299E-07
v -1.447739 1.022261 -2.157299E-07
v 0 3.917739 0
v -0.7238696 1.022261 1.253779
v -0.7238696 1.022261 1.253779
v 0 3.917739 0
v 0.7238693 1.022261 1.253779
v 0.7238693 1.022261 1.253779
v 0 3.917739 0
v 1.447739 1.022261 0
v 1.447739 1.022261 0
v 0 3.917739 0
v 0.7238697 1.022261 -1.253779

vn 0 -1 0
vn 0 -1 0
vn 0 -1 0
vn 0 -1 0
vn 0 -1 0
vn 0 -1 0
vn 0 0.3973597 -0.9176632
vn 0 0.3973598 -0.9176632
vn 0 0.3973598 -0.9176632
vn -0.7947193 0.3973598 -0.4588317
vn -0.7947193 0.3973598 -0.4588316
vn -0.7947193 0.3973598 -0.4588317
vn -0.7947195 0.3973598 0.4588314
vn -0.7947195 0.3973598 0.4588314
vn -0.7947195 0.3973598 0.4588315
vn 0 0.3973597 0.9176632
vn 0 0.3973598 0.9176632
vn 0 0.3973597 0.9176632
vn 0.7947195 0.3973598 0.4588316
vn 0.7947195 0.3973598 0.4588315
vn 0.7947195 0.3973598 0.4588315
vn 0.7947195 0.3973598 -0.4588314
vn 0.7947195 0.3973598 -0.4588315
vn 0.7947195 0.3973598 -0.4588314

vt 0.4003984 0.8223587
vt 0.4003984 0.8663685
vt 0.4385119 0.8883734
vt 0.4385119 0.8003538
vt 0.4766255 0.8663685
vt 0.4766255 0.8223587
vt 0.5220155 0.8883727
vt 0.5000106 0.8003535
vt 0.4780057 0.8883727
vt 0.5233745 0.8003538
vt 0.561488 0.8883734
vt 0.561488 0.8003538
vt 0.561488 0.8003538
vt 0.561488 0.8883734
vt 0.5996016 0.8003538
vt 0.4781376 0.8891711
vt 0.5001425 0.9771907
vt 0.5221474 0.8891711
vt 0.4006834 0.8891717
vt 0.438797 0.9771913
vt 0.438797 0.8891717
vt 0.438797 0.8891717
vt 0.438797 0.9771913
vt 0.4769105 0.8891717

f 2/2/2 1/1/1 3/3/3
f 4/4/4 3/3/3 1/1/1
f 5/5/5 3/3/3 4/4/4
f 6/6/6 5/5/5 4/4/4
f 8/8/8 7/7/7 9/9/9
f 11/11/11 10/10/10 12/12/12
f 14/14/14 13/13/13 15/15/15
f 17/17/17 16/16/16 18/18/18
f 20/20/20 19/19/19 21/21/21
f 23/23/23 22/22/22 24/24/24
