g _Combined Mesh [CylinderHex]
v 0.6390622 1.071876 -1.106888
v 0.6390622 3.628124 -1.106888
v -0.6390617 3.628124 -1.106888
v -0.6390617 1.071876 -1.106888
v -0.6390617 1.071876 -1.106888
v -0.6390617 3.628124 -1.106888
v -1.278124 3.628124 -1.904553E-07
v -1.278124 1.071876 -1.904553E-07
v -1.278124 1.071876 -1.904553E-07
v -1.278124 3.628124 -1.904553E-07
v -0.639062 3.628124 1.106888
v -0.639062 1.071876 1.106888
v -0.639062 1.071876 1.106888
v -0.639062 3.628124 1.106888
v 0.6390618 3.628124 1.106888
v 0.6390618 1.071876 1.106888
v 0.6390618 1.071876 1.106888
v 0.6390618 3.628124 1.106888
v 1.278124 3.628124 0
v 1.278124 1.071876 0
v 1.278124 1.071876 0
v 1.278124 3.628124 0
v 0.6390622 3.628124 -1.106888
v 0.6390622 1.071876 -1.106888
v -0.6390617 1.071876 -1.106888
v 0 1.071876 0
v 0.6390622 1.071876 -1.106888
v -1.278124 1.071876 -1.904553E-07
v -0.639062 1.071876 1.106888
v 0.6390618 1.071876 1.106888
v 1.278124 1.071876 0
v 0.6390622 3.628124 -1.106888
v 0 3.628124 0
v -0.6390617 3.628124 -1.106888
v -1.278124 3.628124 -1.904553E-07
v -0.639062 3.628124 1.106888
v 0.6390618 3.628124 1.106888
v 1.278124 3.628124 0

vn 0 0 -1
vn 0 0 -1
vn 0 0 -1
vn 0 0 -1
vn -0.8660253 0 -0.5000001
vn -0.8660253 0 -0.5000001
vn -0.8660253 0 -0.5000001
vn -0.8660253 0 -0.5000001
vn -0.8660255 0 0.4999999
vn -0.8660255 0 0.4999999
vn -0.8660255 0 0.4999999
vn -0.8660255 0 0.4999999
vn 0 0 1
vn 0 0 1
vn 0 0 1
vn 0 0 1
vn 0.8660254 0 0.5
vn 0.8660254 0 0.5
vn 0.8660254 0 0.5
vn 0.8660254 0 0.5
vn 0.8660255 0 -0.4999999
vn 0.8660255 0 -0.4999999
vn 0.8660255 0 -0.4999999
vn 0.8660255 0 -0.4999999
vn 0 -1 0
vn 0 -1 0
vn 0 -1 0
vn 0 -1 0
vn 0 -1 0
vn 0 -1 0
vn 0 -1 0
vn 0 1 0
vn 0 1 0
vn 0 1 0
vn 0 1 0
vn 0 1 0
vn 0 1 0
vn 0 1 0

vt 0.4333111 0.06635444
vt 0.4333111 0.0003983355
vt 0.4003329 0.0003983355
vt 0.4003329 0.06635444
vt 0.4345632 0.0003984432
vt 0.4345632 0.06635483
vt 0.4631231 0.06635483
vt 0.4631231 0.0003984432
vt 0.4631231 0.0003984432
vt 0.4631231 0.06635483
vt 0.4916831 0.06635483
vt 0.4916831 0.0003984432
vt 0.4928625 0.0003984432
vt 0.4928625 0.06635483
vt 0.5258406 0.06635483
vt 0.5258406 0.0003984432
vt 0.5096595 0.06702182
vt 0.5096595 0.1329782
vt 0.5382194 0.1329782
vt 0.5382194 0.06702182
vt 0.5382194 0.06702182
vt 0.5382194 0.1329782
vt 0.5667793 0.1329782
vt 0.5667793 0.06702182
vt 0.4515145 0.116489
vt 0.4800744 0.09999994
vt 0.4515145 0.08351085
vt 0.4800744 0.1329781
vt 0.5086343 0.116489
vt 0.5086343 0.08351085
vt 0.4800744 0.06702174
vt 0.4574527 0.1501343
vt 0.4288928 0.1666234
vt 0.4574527 0.1831124
vt 0.4288928 0.1996015
vt 0.4003329 0.1831124
vt 0.4003329 0.1501343
vt 0.4288928 0.1336452

f 2/2/2 1/1/1 3/3/3
f 3/3/3 1/1/1 4/4/4
f 6/6/6 5/5/5 7/7/7
f 7/7/7 5/5/5 8/8/8
f 10/10/10 9/9/9 11/11/11
f 11/11/11 9/9/9 12/12/12
f 14/14/14 13/13/13 15/15/15
f 15/15/15 13/13/13 16/16/16
f 18/18/18 17/17/17 19/19/19
f 19/19/19 17/17/17 20/20/20
f 22/22/22 21/21/21 23/23/23
f 23/23/23 21/21/21 24/24/24
f 26/26/26 25/25/25 27/27/27
f 26/26/26 28/28/28 25/25/25
f 26/26/26 29/29/29 28/28/28
f 26/26/26 30/30/30 29/29/29
f 26/26/26 31/31/31 30/30/30
f 26/26/26 27/27/27 31/31/31
f 33/33/33 32/32/32 34/34/34
f 33/33/33 34/34/34 35/35/35
f 33/33/33 35/35/35 36/36/36
f 33/33/33 36/36/36 37/37/37
f 33/33/33 37/37/37 38/38/38
f 33/33/33 38/38/38 32/32/32
