g _Combined Mesh [Diamond]
v 0.2773921 2.15 -1.386742
v 0 3.565801 0
v -1.386742 2.15 -0.277392
v -1.386742 2.15 -0.277392
v 0 3.565801 0
v -0.2773921 2.15 1.386742
v -0.2773921 2.15 1.386742
v 0 3.565801 0
v 1.386742 2.15 0.277392
v 1.386742 2.15 0.277392
v 0 3.565801 0
v 0.2773921 2.15 -1.386742
v 0.2773921 2.15 -1.386742
v 0 0.7341992 0
v 1.386742 2.15 0.277392
v 1.386742 2.15 0.277392
v 0 0.7341992 0
v -0.2773921 2.15 1.386742
v -0.2773921 2.15 1.386742
v 0 0.7341992 0
v -1.386742 2.15 -0.277392
v -1.386742 2.15 -0.277392
v 0 0.7341992 0
v 0.2773921 2.15 -1.386742

vn -0.4530596 0.5769185 -0.6796338
vn -0.4530596 0.5769185 -0.6796338
vn -0.4530595 0.5769185 -0.6796336
vn -0.6796336 0.5769186 0.4530594
vn -0.6796336 0.5769186 0.4530594
vn -0.6796336 0.5769186 0.4530596
vn 0.4530591 0.5769193 0.6796334
vn 0.453059 0.5769193 0.6796334
vn 0.453059 0.5769193 0.6796334
vn 0.6796335 0.5769192 -0.453059
vn 0.6796334 0.5769192 -0.4530591
vn 0.6796335 0.5769193 -0.453059
vn 0.6796335 -0.5769193 -0.453059
vn 0.6796335 -0.5769193 -0.4530591
vn 0.6796334 -0.5769193 -0.453059
vn 0.4530591 -0.5769194 0.6796334
vn 0.4530591 -0.5769193 0.6796334
vn 0.4530591 -0.5769194 0.6796334
vn -0.6796337 -0.5769186 0.4530594
vn -0.6796337 -0.5769186 0.4530595
vn -0.6796337 -0.5769187 0.4530595
vn -0.4530596 -0.5769185 -0.6796337
vn -0.4530596 -0.5769185 -0.6796337
vn -0.4530596 -0.5769185 -0.6796337

vt 0.0003698704 0.8665524
vt 0.06644976 0.9327064
vt 0.06644976 0.8665524
vt 0.06644976 0.8665524
vt 0.06644976 0.9327064
vt 0.1325296 0.8665524
vt 0.1325296 0.8665524
vt 0.06644976 0.9327064
vt 0.06644976 0.8665524
vt 0.06644976 0.8665524
vt 0.06644976 0.9327064
vt 0.0003698704 0.8665524
vt 0.0003698704 0.8665524
vt 0.06644976 0.8003984
vt 0.06644976 0.8665524
vt 0.1853168 0.9996016
vt 0.1853168 0.9334475
vt 0.119237 0.9996016
vt 0.1325296 0.8665524
vt 0.06644976 0.8003984
vt 0.06644976 0.8665524
vt 0.06644976 0.8665524
vt 0.06644976 0.8003984
vt 0.0003698704 0.8665524

f 2/2/2 1/1/1 3/3/3
f 5/5/5 4/4/4 6/6/6
f 8/8/8 7/7/7 9/9/9
f 11/11/11 10/10/10 12/12/12
f 14/14/14 13/13/13 15/15/15
f 17/17/17 16/16/16 18/18/18
f 20/20/20 19/19/19 21/21/21
f 23/23/23 22/22/22 24/24/24
