g _Combined Mesh [Pipe]
v 0.5527666 0.9275734 -0.1796048
v 0.5527666 3.252426 -0.1796048
v 0.5812132 3.252426 2.581105E-16
v 0.5812132 0.9275734 -2.581105E-16
v 0.4702114 0.9275734 -0.3416286
v 0.4702114 3.252426 -0.3416286
v 0.3416286 0.9275734 -0.4702114
v 0.3416286 3.252426 -0.4702114
v 0.552767 3.252426 0.1796049
v 0.552767 0.9275734 0.1796049
v 0.4702117 3.252426 0.3416288
v 0.4702117 0.9275734 0.3416288
v 0.3416288 3.252426 0.4702117
v 0.3416288 0.9275734 0.4702117
v 0.1796048 0.9275734 -0.5527667
v 0.1796048 3.252426 -0.5527667
v 0.3416286 3.252426 -0.4702114
v 0.3416286 0.9275734 -0.4702114
v -1.73215E-08 0.9275734 -0.5812133
v -1.73215E-08 3.252426 -0.5812133
v -0.1796048 0.9275734 -0.5527667
v -0.1796048 3.252426 -0.5527667
v -0.3416286 0.9275734 -0.4702114
v -0.3416286 3.252426 -0.4702114
v -0.4702115 0.9275734 -0.3416286
v -0.4702115 3.252426 -0.3416286
v -0.3416286 3.252426 -0.4702114
v -0.3416286 0.9275734 -0.4702114
v -0.5527668 0.9275734 -0.1796048
v -0.5527668 3.252426 -0.1796048
v -0.5812134 0.9275734 -2.581105E-16
v -0.5812134 3.252426 2.581105E-16
v -0.5527668 0.9275734 0.1796048
v -0.5527668 3.252426 0.1796048
v -0.4702115 0.9275734 0.3416287
v -0.4702115 3.252426 0.3416287
v -0.3416287 0.9275734 0.4702116
v -0.3416287 3.252426 0.4702116
v -0.1796049 0.9275734 0.5527669
v -0.1796049 3.252426 0.5527669
v -0.3416287 3.252426 0.4702116
v -0.3416287 0.9275734 0.4702116
v 0 0.9275734 0.5812135
v 0 3.252426 0.5812135
v 0.1796049 0.9275734 0.5527669
v 0.1796049 3.252426 0.5527669
v 0.3416288 0.9275734 0.4702117
v 0.3416288 3.252426 0.4702117
v 0.5527666 3.252426 -0.1796048
v 1.105533 3.252426 -0.3592095
v 1.162426 3.252426 2.581105E-16
v 0.5812132 3.252426 2.581105E-16
v 0.4702114 3.252426 -0.3416286
v 0.9404228 3.252426 -0.6832572
v 0.3416286 3.252426 -0.4702114
v 0.6832571 3.252426 -0.9404228
v 0.1796048 3.252426 -0.5527667
v 0.3592095 3.252426 -1.105533
v -1.73215E-08 3.252426 -0.5812133
v -3.464301E-08 3.252426 -1.162427
v -0.1796048 3.252426 -0.5527667
v -0.3592096 3.252426 -1.105533
v -0.3416286 3.252426 -0.4702114
v -0.6832573 3.252426 -0.9404229
v -0.4702115 3.252426 -0.3416286
v -0.940423 3.252426 -0.6832573
v -0.5527668 3.252426 -0.1796048
v -1.105534 3.252426 -0.3592096
v -0.5812134 3.252426 2.581105E-16
v -1.162427 3.252426 2.581105E-16
v -0.5527668 3.252426 0.1796048
v -1.105534 3.252426 0.3592096
v -0.4702115 3.252426 0.3416287
v -0.9404231 3.252426 0.6832573
v -0.3416287 3.252426 0.4702116
v -0.6832574 3.252426 0.9404231
v -0.1796049 3.252426 0.5527669
v -0.3592097 3.252426 1.105534
v 0 3.252426 0.5812135
v 0 3.252426 1.162427
v 0.1796049 3.252426 0.5527669
v 0.3592097 3.252426 1.105534
v 0.3416288 3.252426 0.4702117
v 0.6832575 3.252426 0.9404233
v 0.4702117 3.252426 0.3416288
v 0.9404234 3.252426 0.6832575
v 0.552767 3.252426 0.1796049
v 1.105534 3.252426 0.3592097
v 1.105533 3.252426 -0.3592095
v 1.105533 0.9275734 -0.3592095
v 1.162426 0.9275734 -2.581105E-16
v 1.162426 3.252426 2.581105E-16
v 0.9404228 3.252426 -0.6832572
v 0.9404228 0.9275734 -0.6832572
v 0.6832571 3.252426 -0.9404228
v 0.6832571 0.9275734 -0.9404228
v 1.105534 0.9275734 0.3592097
v 1.105534 3.252426 0.3592097
v 0.9404234 0.9275734 0.6832575
v 0.9404234 3.252426 0.6832575
v 0.6832575 0.9275734 0.9404233
v 0.6832575 3.252426 0.9404233
v 0.3592095 3.252426 -1.105533
v 0.3592095 0.9275734 -1.105533
v 0.6832571 0.9275734 -0.9404228
v 0.6832571 3.252426 -0.9404228
v -3.464301E-08 3.252426 -1.162427
v -3.464301E-08 0.9275734 -1.162427
v -0.3592096 3.252426 -1.105533
v -0.3592096 0.9275734 -1.105533
v -0.6832573 3.252426 -0.9404229
v -0.6832573 0.9275734 -0.9404229
v -0.940423 3.252426 -0.6832573
v -0.940423 0.9275734 -0.6832573
v -0.6832573 0.9275734 -0.9404229
v -0.6832573 3.252426 -0.9404229
v -1.105534 3.252426 -0.3592096
v -1.105534 0.9275734 -0.3592096
v -1.162427 3.252426 2.581105E-16
v -1.162427 0.9275734 -2.581105E-16
v -1.105534 3.252426 0.3592096
v -1.105534 0.9275734 0.3592096
v -0.9404231 3.252426 0.6832573
v -0.9404231 0.9275734 0.6832573
v -0.6832574 3.252426 0.9404231
v -0.6832574 0.9275734 0.9404231
v -0.3592097 3.252426 1.105534
v -0.3592097 0.9275734 1.105534
v -0.6832574 0.9275734 0.9404231
v -0.6832574 3.252426 0.9404231
v 0 3.252426 1.162427
v 0 0.9275734 1.162427
v 0.3592097 3.252426 1.105534
v 0.3592097 0.9275734 1.105534
v 0.6832575 3.252426 0.9404233
v 0.6832575 0.9275734 0.9404233
v 1.105533 0.9275734 -0.3592095
v 0.5527666 0.9275734 -0.1796048
v 0.5812132 0.9275734 -2.581105E-16
v 1.162426 0.9275734 -2.581105E-16
v 0.9404228 0.9275734 -0.6832572
v 0.4702114 0.9275734 -0.3416286
v 0.6832571 0.9275734 -0.9404228
v 0.3416286 0.9275734 -0.4702114
v 0.3592095 0.9275734 -1.105533
v 0.1796048 0.9275734 -0.5527667
v -3.464301E-08 0.9275734 -1.162427
v -1.73215E-08 0.9275734 -0.5812133
v -0.3592096 0.9275734 -1.105533
v -0.1796048 0.9275734 -0.5527667
v -0.6832573 0.9275734 -0.9404229
v -0.3416286 0.9275734 -0.4702114
v -0.940423 0.9275734 -0.6832573
v -0.4702115 0.9275734 -0.3416286
v -1.105534 0.9275734 -0.3592096
v -0.5527668 0.9275734 -0.1796048
v -1.162427 0.9275734 -2.581105E-16
v -0.5812134 0.9275734 -2.581105E-16
v -1.105534 0.9275734 0.3592096
v -0.5527668 0.9275734 0.1796048
v -0.9404231 0.9275734 0.6832573
v -0.4702115 0.9275734 0.3416287
v -0.6832574 0.9275734 0.9404231
v -0.3416287 0.9275734 0.4702116
v -0.3592097 0.9275734 1.105534
v -0.1796049 0.9275734 0.5527669
v 0 0.9275734 1.162427
v 0 0.9275734 0.5812135
v 0.3592097 0.9275734 1.105534
v 0.1796049 0.9275734 0.5527669
v 0.6832575 0.9275734 0.9404233
v 0.3416288 0.9275734 0.4702117
v 0.9404234 0.9275734 0.6832575
v 0.4702117 0.9275734 0.3416288
v 1.105534 0.9275734 0.3592097
v 0.552767 0.9275734 0.1796049

vn -0.9510565 0 0.309017
vn -0.9510565 0 0.309017
vn -1 0 0
vn -1 0 0
vn -0.809017 0 0.5877853
vn -0.809017 0 0.5877853
vn -0.5877853 0 0.809017
vn -0.5877853 0 0.809017
vn -0.9510568 0 -0.309016
vn -0.9510568 0 -0.309016
vn -0.8090169 0 -0.5877853
vn -0.8090169 0 -0.5877853
vn -0.5877851 0 -0.8090171
vn -0.5877851 0 -0.8090171
vn -0.3090171 0 0.9510565
vn -0.3090171 0 0.9510565
vn -0.5877853 0 0.809017
vn -0.5877853 0 0.809017
vn 0 0 1
vn 0 0 1
vn 0.3090169 0 0.9510565
vn 0.3090169 0 0.9510565
vn 0.5877852 0 0.8090171
vn 0.5877852 0 0.8090171
vn 0.8090169 0 0.5877854
vn 0.8090169 0 0.5877854
vn 0.5877852 0 0.8090171
vn 0.5877852 0 0.8090171
vn 0.9510565 0 0.309017
vn 0.9510565 0 0.309017
vn 1 0 0
vn 1 0 0
vn 0.9510565 0 -0.3090169
vn 0.9510565 0 -0.3090169
vn 0.8090171 0 -0.5877851
vn 0.8090171 0 -0.5877851
vn 0.5877855 0 -0.8090168
vn 0.5877855 0 -0.8090168
vn 0.3090171 0 -0.9510565
vn 0.3090171 0 -0.9510565
vn 0.5877855 0 -0.8090168
vn 0.5877855 0 -0.8090168
vn 0 0 -1
vn 0 0 -1
vn -0.3090168 0 -0.9510565
vn -0.3090168 0 -0.9510565
vn -0.5877851 0 -0.8090171
vn -0.5877851 0 -0.8090171
vn 0 1 0
vn 0 1 0
vn 0 1 0
vn 0 1 0
vn 0 1 0
vn 0 1 0
vn 0 1 0
vn 0 1 0
vn 0 1 0
vn 0 1 0
vn 0 1 0
vn 0 1 0
vn 0 1 0
vn 0 1 0
vn 0 1 0
vn 0 1 0
vn 0 1 0
vn 0 1 0
vn 0 1 0
vn 0 1 0
vn 0 1 0
vn 0 1 0
vn 0 1 0
vn 0 1 0
vn 0 1 0
vn 0 1 0
vn 0 1 0
vn 0 1 0
vn 0 1 0
vn 0 1 0
vn 0 1 0
vn 0 1 0
vn 0 1 0
vn 0 1 0
vn 0 1 0
vn 0 1 0
vn 0 1 0
vn 0 1 0
vn 0 1 0
vn 0 1 0
vn 0.9510565 0 -0.309017
vn 0.9510565 0 -0.309017
vn 1 0 0
vn 1 0 0
vn 0.809017 0 -0.5877853
vn 0.809017 0 -0.5877853
vn 0.5877853 0 -0.809017
vn 0.5877853 0 -0.809017
vn 0.9510568 0 0.309016
vn 0.9510568 0 0.309016
vn 0.8090169 0 0.5877853
vn 0.8090169 0 0.5877853
vn 0.5877851 0 0.8090171
vn 0.5877851 0 0.8090171
vn 0.3090171 0 -0.9510565
vn 0.3090171 0 -0.9510565
vn 0.5877853 0 -0.809017
vn 0.5877853 0 -0.809017
vn 0 0 -1
vn 0 0 -1
vn -0.3090169 0 -0.9510565
vn -0.3090169 0 -0.9510565
vn -0.5877852 0 -0.8090171
vn -0.5877852 0 -0.8090171
vn -0.8090169 0 -0.5877854
vn -0.8090169 0 -0.5877854
vn -0.5877852 0 -0.8090171
vn -0.5877852 0 -0.8090171
vn -0.9510565 0 -0.309017
vn -0.9510565 0 -0.309017
vn -1 0 0
vn -1 0 0
vn -0.9510565 0 0.3090169
vn -0.9510565 0 0.3090169
vn -0.8090171 0 0.5877851
vn -0.8090171 0 0.5877851
vn -0.5877855 0 0.8090168
vn -0.5877855 0 0.8090168
vn -0.3090171 0 0.9510565
vn -0.3090171 0 0.9510565
vn -0.5877855 0 0.8090168
vn -0.5877855 0 0.8090168
vn 0 0 1
vn 0 0 1
vn 0.3090168 0 0.9510565
vn 0.3090168 0 0.9510565
vn 0.5877851 0 0.8090171
vn 0.5877851 0 0.8090171
vn 0 -1 0
vn 0 -1 0
vn 0 -1 0
vn 0 -1 0
vn 0 -1 0
vn 0 -1 0
vn 0 -1 0
vn 0 -1 0
vn 0 -1 0
vn 0 -1 0
vn 0 -1 0
vn 0 -1 0
vn 0 -1 0
vn 0 -1 0
vn 0 -1 0
vn 0 -1 0
vn 0 -1 0
vn 0 -1 0
vn 0 -1 0
vn 0 -1 0
vn 0 -1 0
vn 0 -1 0
vn 0 -1 0
vn 0 -1 0
vn 0 -1 0
vn 0 -1 0
vn 0 -1 0
vn 0 -1 0
vn 0 -1 0
vn 0 -1 0
vn 0 -1 0
vn 0 -1 0
vn 0 -1 0
vn 0 -1 0
vn 0 -1 0
vn 0 -1 0
vn 0 -1 0
vn 0 -1 0
vn 0 -1 0
vn 0 -1 0

vt 0.008601091 0.2003984
vt 0.008601091 0.2663168
vt 0.01369358 0.2663168
vt 0.01369358 0.2003984
vt 0.004007093 0.2003984
vt 0.004007093 0.2663168
vt 0.0003613217 0.2003984
vt 0.0003613217 0.2663168
vt 0.01878608 0.2663168
vt 0.01878608 0.2003984
vt 0.02338007 0.2663168
vt 0.02338007 0.2003984
vt 0.02702588 0.2663168
vt 0.02702588 0.2003984
vt 0.04310143 0.2003984
vt 0.04310143 0.2663168
vt 0.04769543 0.2663168
vt 0.04769543 0.2003984
vt 0.03800894 0.2003984
vt 0.03800894 0.2663168
vt 0.03291645 0.2003984
vt 0.03291645 0.2663168
vt 0.02832249 0.2003984
vt 0.02832249 0.2663168
vt 0.07184358 0.2003984
vt 0.07184358 0.2663168
vt 0.07548934 0.2663168
vt 0.07548934 0.2003984
vt 0.06724958 0.2003984
vt 0.06724958 0.2663168
vt 0.06215708 0.2003984
vt 0.06215708 0.2663168
vt 0.05706459 0.2003984
vt 0.05706459 0.2663168
vt 0.05247059 0.2003984
vt 0.05247059 0.2663168
vt 0.04882482 0.2003984
vt 0.04882482 0.2663168
vt 0.08134471 0.2663166
vt 0.08134471 0.2003984
vt 0.07675074 0.2003984
vt 0.07675074 0.2663166
vt 0.0864372 0.2663166
vt 0.0864372 0.2003984
vt 0.09152969 0.2663166
vt 0.09152969 0.2003984
vt 0.09612369 0.2663166
vt 0.09612369 0.2003984
vt 0.1458855 0.2384501
vt 0.1615586 0.2435426
vt 0.1631717 0.2333576
vt 0.1466921 0.2333576
vt 0.1435447 0.2430441
vt 0.156877 0.2527306
vt 0.139899 0.2466899
vt 0.1495854 0.2600221
vt 0.135305 0.2490306
vt 0.1403975 0.2647036
vt 0.1302125 0.2498372
vt 0.1302125 0.2663168
vt 0.12512 0.2490306
vt 0.1200275 0.2647036
vt 0.120526 0.2466899
vt 0.1108395 0.2600221
vt 0.1168802 0.2430441
vt 0.1035479 0.2527306
vt 0.1145394 0.2384501
vt 0.09886641 0.2435426
vt 0.1137329 0.2333576
vt 0.09725326 0.2333576
vt 0.1145394 0.2282651
vt 0.09886641 0.2231726
vt 0.1168802 0.2236711
vt 0.1035479 0.2139846
vt 0.120526 0.2200254
vt 0.1108395 0.2066931
vt 0.12512 0.2176846
vt 0.1200275 0.2020115
vt 0.1302125 0.2168781
vt 0.1302125 0.2003984
vt 0.135305 0.2176846
vt 0.1403975 0.2020115
vt 0.139899 0.2200254
vt 0.1495855 0.2066931
vt 0.1435447 0.2236711
vt 0.1568771 0.2139846
vt 0.1458856 0.2282651
vt 0.1615586 0.2231726
vt 0.1645341 0.3329592
vt 0.1645341 0.2670408
vt 0.1543491 0.2670408
vt 0.1543491 0.3329592
vt 0.1737221 0.3329592
vt 0.1737221 0.2670408
vt 0.1810136 0.3329592
vt 0.1810136 0.2670408
vt 0.1441641 0.2670408
vt 0.1441641 0.3329592
vt 0.1349761 0.2670408
vt 0.1349761 0.3329592
vt 0.1276846 0.2670408
vt 0.1276846 0.3329592
vt 0.1173839 0.2670408
vt 0.1173839 0.3329589
vt 0.1265719 0.3329589
vt 0.1265719 0.2670408
vt 0.107199 0.2670408
vt 0.107199 0.3329589
vt 0.09701402 0.2670408
vt 0.09701402 0.3329589
vt 0.08782602 0.2670408
vt 0.08782602 0.3329589
vt 0.04067576 0.3329592
vt 0.04067576 0.2670408
vt 0.03338407 0.2670408
vt 0.03338407 0.3329592
vt 0.04986368 0.3329592
vt 0.04986368 0.2670408
vt 0.06004867 0.3329592
vt 0.06004867 0.2670408
vt 0.07023362 0.3329592
vt 0.07023362 0.2670408
vt 0.07942162 0.3329592
vt 0.07942162 0.2670408
vt 0.08671322 0.3329592
vt 0.08671322 0.2670408
vt 0.009549319 0.3996016
vt 0.009549319 0.3336831
vt 0.0003613217 0.3336831
vt 0.0003613217 0.3996016
vt 0.01973427 0.3996016
vt 0.01973427 0.3336831
vt 0.02991925 0.3996016
vt 0.02991925 0.3336831
vt 0.03910725 0.3996016
vt 0.03910725 0.3336831
vt 0.1046465 0.3564574
vt 0.08897341 0.3615499
vt 0.08978002 0.3666424
vt 0.1062596 0.3666424
vt 0.09996493 0.3472695
vt 0.08663267 0.3569559
vt 0.09267332 0.3399779
vt 0.0829869 0.3533101
vt 0.08348539 0.3352963
vt 0.0783929 0.3509694
vt 0.07330041 0.3336831
vt 0.07330041 0.3501627
vt 0.06311546 0.3352963
vt 0.06820791 0.3509694
vt 0.05392746 0.3399778
vt 0.06361395 0.3533101
vt 0.04663584 0.3472695
vt 0.05996811 0.3569559
vt 0.04195433 0.3564574
vt 0.05762737 0.3615499
vt 0.04034118 0.3666424
vt 0.05682079 0.3666424
vt 0.04195433 0.3768273
vt 0.05762737 0.3717349
vt 0.04663584 0.3860153
vt 0.05996811 0.3763288
vt 0.05392746 0.3933069
vt 0.06361395 0.3799747
vt 0.06311546 0.3979884
vt 0.06820791 0.3823154
vt 0.07330041 0.3996016
vt 0.07330041 0.383122
vt 0.08348539 0.3979884
vt 0.0783929 0.3823154
vt 0.09267338 0.3933069
vt 0.0829869 0.3799747
vt 0.099965 0.3860153
vt 0.08663267 0.3763289
vt 0.1046465 0.3768273
vt 0.08897348 0.3717349

f 2/2/2 1/1/1 3/3/3
f 3/3/3 1/1/1 4/4/4
f 2/2/2 5/5/5 1/1/1
f 6/6/6 5/5/5 2/2/2
f 6/6/6 7/7/7 5/5/5
f 8/8/8 7/7/7 6/6/6
f 3/3/3 4/4/4 9/9/9
f 9/9/9 4/4/4 10/10/10
f 9/9/9 10/10/10 11/11/11
f 11/11/11 10/10/10 12/12/12
f 11/11/11 12/12/12 13/13/13
f 13/13/13 12/12/12 14/14/14
f 16/16/16 15/15/15 17/17/17
f 17/17/17 15/15/15 18/18/18
f 16/16/16 19/19/19 15/15/15
f 20/20/20 19/19/19 16/16/16
f 20/20/20 21/21/21 19/19/19
f 22/22/22 21/21/21 20/20/20
f 22/22/22 23/23/23 21/21/21
f 24/24/24 23/23/23 22/22/22
f 26/26/26 25/25/25 27/27/27
f 27/27/27 25/25/25 28/28/28
f 26/26/26 29/29/29 25/25/25
f 30/30/30 29/29/29 26/26/26
f 30/30/30 31/31/31 29/29/29
f 32/32/32 31/31/31 30/30/30
f 32/32/32 33/33/33 31/31/31
f 34/34/34 33/33/33 32/32/32
f 34/34/34 35/35/35 33/33/33
f 36/36/36 35/35/35 34/34/34
f 36/36/36 37/37/37 35/35/35
f 38/38/38 37/37/37 36/36/36
f 40/40/40 39/39/39 41/41/41
f 41/41/41 39/39/39 42/42/42
f 40/40/40 43/43/43 39/39/39
f 44/44/44 43/43/43 40/40/40
f 44/44/44 45/45/45 43/43/43
f 46/46/46 45/45/45 44/44/44
f 46/46/46 47/47/47 45/45/45
f 48/48/48 47/47/47 46/46/46
f 50/50/50 49/49/49 51/51/51
f 51/51/51 49/49/49 52/52/52
f 50/50/50 53/53/53 49/49/49
f 54/54/54 53/53/53 50/50/50
f 54/54/54 55/55/55 53/53/53
f 56/56/56 55/55/55 54/54/54
f 56/56/56 57/57/57 55/55/55
f 58/58/58 57/57/57 56/56/56
f 58/58/58 59/59/59 57/57/57
f 60/60/60 59/59/59 58/58/58
f 60/60/60 61/61/61 59/59/59
f 62/62/62 61/61/61 60/60/60
f 62/62/62 63/63/63 61/61/61
f 64/64/64 63/63/63 62/62/62
f 64/64/64 65/65/65 63/63/63
f 66/66/66 65/65/65 64/64/64
f 66/66/66 67/67/67 65/65/65
f 68/68/68 67/67/67 66/66/66
f 68/68/68 69/69/69 67/67/67
f 70/70/70 69/69/69 68/68/68
f 70/70/70 71/71/71 69/69/69
f 72/72/72 71/71/71 70/70/70
f 72/72/72 73/73/73 71/71/71
f 74/74/74 73/73/73 72/72/72
f 74/74/74 75/75/75 73/73/73
f 76/76/76 75/75/75 74/74/74
f 76/76/76 77/77/77 75/75/75
f 78/78/78 77/77/77 76/76/76
f 78/78/78 79/79/79 77/77/77
f 80/80/80 79/79/79 78/78/78
f 80/80/80 81/81/81 79/79/79
f 82/82/82 81/81/81 80/80/80
f 82/82/82 83/83/83 81/81/81
f 84/84/84 83/83/83 82/82/82
f 84/84/84 85/85/85 83/83/83
f 86/86/86 85/85/85 84/84/84
f 86/86/86 87/87/87 85/85/85
f 88/88/88 87/87/87 86/86/86
f 88/88/88 52/52/52 87/87/87
f 51/51/51 52/52/52 88/88/88
f 90/90/90 89/89/89 91/91/91
f 91/91/91 89/89/89 92/92/92
f 90/90/90 93/93/93 89/89/89
f 94/94/94 93/93/93 90/90/90
f 94/94/94 95/95/95 93/93/93
f 96/96/96 95/95/95 94/94/94
f 91/91/91 92/92/92 97/97/97
f 97/97/97 92/92/92 98/98/98
f 97/97/97 98/98/98 99/99/99
f 99/99/99 98/98/98 100/100/100
f 99/99/99 100/100/100 101/101/101
f 101/101/101 100/100/100 102/102/102
f 104/104/104 103/103/103 105/105/105
f 105/105/105 103/103/103 106/106/106
f 104/104/104 107/107/107 103/103/103
f 108/108/108 107/107/107 104/104/104
f 108/108/108 109/109/109 107/107/107
f 110/110/110 109/109/109 108/108/108
f 110/110/110 111/111/111 109/109/109
f 112/112/112 111/111/111 110/110/110
f 114/114/114 113/113/113 115/115/115
f 115/115/115 113/113/113 116/116/116
f 114/114/114 117/117/117 113/113/113
f 118/118/118 117/117/117 114/114/114
f 118/118/118 119/119/119 117/117/117
f 120/120/120 119/119/119 118/118/118
f 120/120/120 121/121/121 119/119/119
f 122/122/122 121/121/121 120/120/120
f 122/122/122 123/123/123 121/121/121
f 124/124/124 123/123/123 122/122/122
f 124/124/124 125/125/125 123/123/123
f 126/126/126 125/125/125 124/124/124
f 128/128/128 127/127/127 129/129/129
f 129/129/129 127/127/127 130/130/130
f 128/128/128 131/131/131 127/127/127
f 132/132/132 131/131/131 128/128/128
f 132/132/132 133/133/133 131/131/131
f 134/134/134 133/133/133 132/132/132
f 134/134/134 135/135/135 133/133/133
f 136/136/136 135/135/135 134/134/134
f 138/138/138 137/137/137 139/139/139
f 139/139/139 137/137/137 140/140/140
f 138/138/138 141/141/141 137/137/137
f 142/142/142 141/141/141 138/138/138
f 142/142/142 143/143/143 141/141/141
f 144/144/144 143/143/143 142/142/142
f 144/144/144 145/145/145 143/143/143
f 146/146/146 145/145/145 144/144/144
f 146/146/146 147/147/147 145/145/145
f 148/148/148 147/147/147 146/146/146
f 148/148/148 149/149/149 147/147/147
f 150/150/150 149/149/149 148/148/148
f 150/150/150 151/151/151 149/149/149
f 152/152/152 151/151/151 150/150/150
f 152/152/152 153/153/153 151/151/151
f 154/154/154 153/153/153 152/152/152
f 154/154/154 155/155/155 153/153/153
f 156/156/156 155/155/155 154/154/154
f 156/156/156 157/157/157 155/155/155
f 158/158/158 157/157/157 156/156/156
f 158/158/158 159/159/159 157/157/157
f 160/160/160 159/159/159 158/158/158
f 160/160/160 161/161/161 159/159/159
f 162/162/162 161/161/161 160/160/160
f 162/162/162 163/163/163 161/161/161
f 164/164/164 163/163/163 162/162/162
f 164/164/164 165/165/165 163/163/163
f 166/166/166 165/165/165 164/164/164
f 166/166/166 167/167/167 165/165/165
f 168/168/168 167/167/167 166/166/166
f 168/168/168 169/169/169 167/167/167
f 170/170/170 169/169/169 168/168/168
f 170/170/170 171/171/171 169/169/169
f 172/172/172 171/171/171 170/170/170
f 172/172/172 173/173/173 171/171/171
f 174/174/174 173/173/173 172/172/172
f 174/174/174 175/175/175 173/173/173
f 176/176/176 175/175/175 174/174/174
f 176/176/176 140/140/140 175/175/175
f 139/139/139 140/140/140 176/176/176
