g _Combined Mesh [Pyramid]
v -0.4829289 1.031755 -1.887758
v -1.807265 1.09524 0.8330612
v 1.210811 1.167733 0.6169385
v -0.4829289 1.031755 -1.887758
v -0.4255086 3.567012 -0.2355093
v -1.807265 1.09524 0.8330612
v -1.807265 1.09524 0.8330612
v -0.4255086 3.567012 -0.2355093
v 1.210811 1.167733 0.6169385
v 1.210811 1.167733 0.6169385
v -0.4255086 3.567012 -0.2355093
v -0.4829289 1.031755 -1.887758

vn 0.02659133 -0.9989888 0.03625267
vn 0.02659133 -0.9989888 0.03625267
vn 0.02659133 -0.9989888 0.03625267
vn -0.856259 0.2955039 -0.423672
vn -0.856259 0.2955038 -0.423672
vn -0.856259 0.2955038 -0.423672
vn 0.05757159 0.3688686 0.9276969
vn 0.05757159 0.3688686 0.9276969
vn 0.05757159 0.3688686 0.9276969
vn 0.772096 0.3346162 -0.5402775
vn 0.772096 0.3346163 -0.5402775
vn 0.772096 0.3346163 -0.5402775

vt 0.4003736 0.4003984
vt 0.4003736 0.5067499
vt 0.4924767 0.4535742
vt 0.4939864 0.5067499
vt 0.5808221 0.4535742
vt 0.4939864 0.4003984
vt 0.500344 0.5996016
vt 0.5871796 0.5689006
vt 0.500344 0.5074985
vt 0.4991933 0.5074985
vt 0.4123576 0.5689006
vt 0.4991933 0.5996016

f 2/2/2 1/1/1 3/3/3
f 5/5/5 4/4/4 6/6/6
f 8/8/8 7/7/7 9/9/9
f 11/11/11 10/10/10 12/12/12
