g _Combined Mesh [PyramidHalf]
v -1.010088 0.9748673 1.010088
v -0.5063109 4.005133 0.5063111
v 0.5063109 4.005133 0.5063111
v 1.010088 0.9748673 1.010088
v -0.5063109 4.005133 0.5063111
v -0.5063109 4.005133 -0.5063111
v 0.5063109 4.005133 -0.5063111
v 0.5063109 4.005133 0.5063111
v -0.5063109 4.005133 -0.5063111
v -1.010088 0.9748673 -1.010088
v 1.010088 0.9748673 -1.010088
v 0.5063109 4.005133 -0.5063111
v -1.010088 0.9748673 -1.010088
v -1.010088 0.9748673 1.010088
v 1.010088 0.9748673 1.010088
v 1.010088 0.9748673 -1.010088
v 1.010088 0.9748673 1.010088
v 0.5063109 4.005133 0.5063111
v 0.5063109 4.005133 -0.5063111
v 1.010088 0.9748673 -1.010088
v -1.010088 0.9748673 -1.010088
v -0.5063109 4.005133 -0.5063111
v -0.5063109 4.005133 0.5063111
v -1.010088 0.9748673 1.010088

vn 0 0.1639978 0.986461
vn 0 0.1639978 0.986461
vn 0 0.1639978 0.986461
vn 0 0.1639978 0.986461
vn 0 1 0
vn 0 1 0
vn 0 1 0
vn 0 1 0
vn 0 0.1639978 -0.986461
vn 0 0.1639978 -0.986461
vn 0 0.1639978 -0.986461
vn 0 0.1639978 -0.986461
vn 0 -1 0
vn 0 -1 0
vn 0 -1 0
vn 0 -1 0
vn 0.9864608 0.1639977 0
vn 0.9864608 0.1639977 0
vn 0.9864608 0.1639977 0
vn 0.9864608 0.1639977 0
vn -0.9864608 0.1639977 0
vn -0.9864608 0.1639977 0
vn -0.9864608 0.1639977 0
vn -0.9864608 0.1639977 0

vt 0.8003984 0.4003652
vt 0.8155016 0.491212
vt 0.8458598 0.491212
vt 0.8609629 0.4003652
vt 0.8456604 0.5223684
vt 0.8760184 0.5223684
vt 0.8760184 0.4920104
vt 0.8456604 0.4920104
vt 0.8775172 0.4003652
vt 0.862414 0.4912117
vt 0.9229786 0.4912117
vt 0.9078754 0.4003652
vt 0.8772454 0.4920103
vt 0.8772454 0.5525748
vt 0.93781 0.5525748
vt 0.93781 0.4920103
vt 0.9243907 0.4003652
vt 0.9394938 0.491212
vt 0.9698519 0.491212
vt 0.984955 0.4003652
vt 0.939037 0.4920103
vt 0.9541402 0.5828571
vt 0.9844984 0.5828571
vt 0.9996016 0.4920103

f 2/2/2 1/1/1 3/3/3
f 3/3/3 1/1/1 4/4/4
f 6/6/6 5/5/5 7/7/7
f 7/7/7 5/5/5 8/8/8
f 10/10/10 9/9/9 11/11/11
f 11/11/11 9/9/9 12/12/12
f 14/14/14 13/13/13 15/15/15
f 15/15/15 13/13/13 16/16/16
f 18/18/18 17/17/17 19/19/19
f 19/19/19 17/17/17 20/20/20
f 22/22/22 21/21/21 23/23/23
f 23/23/23 21/21/21 24/24/24
