g _Combined Mesh [SapphireBox]
v -0.6408822 0.8683637 0.6408824
v -0.6408822 0.8683637 -0.6408817
v -1.281636 1.509118 -0.6408817
v -1.281636 1.509118 0.6408824
v -0.6408822 1.509118 1.281636
v 0.6408822 1.509118 1.281636
v 0.6408822 0.8683637 0.6408824
v -0.6408822 0.8683637 0.6408824
v -1.281636 1.509118 0.6408824
v -1.281636 2.790882 0.6408824
v -0.6408822 2.790882 1.281636
v -0.6408822 1.509118 1.281636
v 1.281636 1.509118 0.6408824
v 1.281636 1.509118 -0.6408817
v 0.6408822 0.8683637 -0.6408817
v 0.6408822 0.8683637 0.6408824
v 0.6408822 1.509118 1.281636
v 0.6408822 2.790882 1.281636
v 1.281636 2.790882 0.6408824
v 1.281636 1.509118 0.6408824
v -1.281636 2.790882 0.6408824
v -1.281636 2.790882 -0.6408817
v -0.6408822 3.431636 -0.6408817
v -0.6408822 3.431636 0.6408824
v -0.6408822 3.431636 0.6408824
v 0.6408822 3.431636 0.6408824
v 0.6408822 2.790882 1.281636
v -0.6408822 2.790882 1.281636
v 0.6408822 3.431636 0.6408824
v 0.6408822 3.431636 -0.6408817
v 1.281636 2.790882 -0.6408817
v 1.281636 2.790882 0.6408824
v -1.281636 2.790882 -0.6408817
v -1.281636 1.509118 -0.6408817
v -0.6408822 1.509118 -1.281636
v -0.6408822 2.790882 -1.281636
v -0.6408822 2.790882 -1.281636
v 0.6408822 2.790882 -1.281636
v 0.6408822 3.431636 -0.6408817
v -0.6408822 3.431636 -0.6408817
v 0.6408822 2.790882 -1.281636
v 0.6408822 1.509118 -1.281636
v 1.281636 1.509118 -0.6408817
v 1.281636 2.790882 -0.6408817
v -0.6408822 0.8683637 -0.6408817
v 0.6408822 0.8683637 -0.6408817
v 0.6408822 1.509118 -1.281636
v -0.6408822 1.509118 -1.281636
v -0.6408822 1.509118 1.281636
v -0.6408822 2.790882 1.281636
v 0.6408822 2.790882 1.281636
v 0.6408822 1.509118 1.281636
v -0.6408822 3.431636 0.6408824
v -0.6408822 3.431636 -0.6408817
v 0.6408822 3.431636 -0.6408817
v 0.6408822 3.431636 0.6408824
v -0.6408822 2.790882 -1.281636
v -0.6408822 1.509118 -1.281636
v 0.6408822 1.509118 -1.281636
v 0.6408822 2.790882 -1.281636
v -0.6408822 0.8683637 -0.6408817
v -0.6408822 0.8683637 0.6408824
v 0.6408822 0.8683637 0.6408824
v 0.6408822 0.8683637 -0.6408817
v 1.281636 1.509118 0.6408824
v 1.281636 2.790882 0.6408824
v 1.281636 2.790882 -0.6408817
v 1.281636 1.509118 -0.6408817
v -1.281636 1.509118 -0.6408817
v -1.281636 2.790882 -0.6408817
v -1.281636 2.790882 0.6408824
v -1.281636 1.509118 0.6408824
v -0.6408822 0.8683637 0.6408824
v -1.281636 1.509118 0.6408824
v -0.6408822 1.509118 1.281636
v 1.281636 1.509118 0.6408824
v 0.6408822 0.8683637 0.6408824
v 0.6408822 1.509118 1.281636
v -1.281636 2.790882 0.6408824
v -0.6408822 3.431636 0.6408824
v -0.6408822 2.790882 1.281636
v 0.6408822 3.431636 0.6408824
v 1.281636 2.790882 0.6408824
v 0.6408822 2.790882 1.281636
v -1.281636 2.790882 -0.6408817
v -0.6408822 2.790882 -1.281636
v -0.6408822 3.431636 -0.6408817
v 0.6408822 2.790882 -1.281636
v 1.281636 2.790882 -0.6408817
v 0.6408822 3.431636 -0.6408817
v -1.281636 1.509118 -0.6408817
v -0.6408822 0.8683637 -0.6408817
v -0.6408822 1.509118 -1.281636
v 0.6408822 0.8683637 -0.6408817
v 1.281636 1.509118 -0.6408817
v 0.6408822 1.509118 -1.281636

vn -0.7071068 -0.7071068 0
vn -0.7071068 -0.7071068 0
vn -0.7071068 -0.7071068 0
vn -0.7071068 -0.7071068 0
vn 0 -0.7071068 0.7071069
vn 0 -0.7071068 0.7071069
vn 0 -0.7071068 0.7071069
vn 0 -0.7071068 0.7071069
vn -0.7071067 0 0.7071069
vn -0.7071067 0 0.7071069
vn -0.7071067 0 0.7071069
vn -0.7071067 0 0.7071069
vn 0.7071068 -0.7071068 0
vn 0.7071068 -0.7071068 0
vn 0.7071068 -0.7071068 0
vn 0.7071068 -0.7071068 0
vn 0.7071067 0 0.7071069
vn 0.7071067 0 0.7071069
vn 0.7071067 0 0.7071069
vn 0.7071067 0 0.7071069
vn -0.7071068 0.7071068 0
vn -0.7071068 0.7071068 0
vn -0.7071068 0.7071068 0
vn -0.7071068 0.7071068 0
vn 0 0.7071068 0.7071069
vn 0 0.7071068 0.7071069
vn 0 0.7071068 0.7071069
vn 0 0.7071068 0.7071069
vn 0.7071068 0.7071068 0
vn 0.7071068 0.7071068 0
vn 0.7071068 0.7071068 0
vn 0.7071068 0.7071068 0
vn -0.7071071 0 -0.7071065
vn -0.7071071 0 -0.7071065
vn -0.7071071 0 -0.7071065
vn -0.7071071 0 -0.7071065
vn 0 0.7071071 -0.7071065
vn 0 0.7071071 -0.7071065
vn 0 0.7071071 -0.7071065
vn 0 0.7071071 -0.7071065
vn 0.7071071 0 -0.7071065
vn 0.7071071 0 -0.7071065
vn 0.7071071 0 -0.7071065
vn 0.7071071 0 -0.7071065
vn 0 -0.7071071 -0.7071065
vn 0 -0.7071071 -0.7071065
vn 0 -0.7071071 -0.7071065
vn 0 -0.7071071 -0.7071065
vn 0 0 1
vn 0 0 1
vn 0 0 1
vn 0 0 1
vn 0 1 0
vn 0 1 0
vn 0 1 0
vn 0 1 0
vn 0 0 -1
vn 0 0 -1
vn 0 0 -1
vn 0 0 -1
vn 0 -1 0
vn 0 -1 0
vn 0 -1 0
vn 0 -1 0
vn 1 0 0
vn 1 0 0
vn 1 0 0
vn 1 0 0
vn -1 0 0
vn -1 0 0
vn -1 0 0
vn -1 0 0
vn -0.5773502 -0.5773504 0.5773504
vn -0.5773502 -0.5773504 0.5773504
vn -0.5773502 -0.5773504 0.5773504
vn 0.5773502 -0.5773504 0.5773504
vn 0.5773502 -0.5773504 0.5773504
vn 0.5773502 -0.5773504 0.5773504
vn -0.5773502 0.5773504 0.5773504
vn -0.5773502 0.5773504 0.5773504
vn -0.5773502 0.5773504 0.5773504
vn 0.5773502 0.5773504 0.5773504
vn 0.5773502 0.5773504 0.5773504
vn 0.5773502 0.5773504 0.5773504
vn -0.5773503 0.5773506 -0.57735
vn -0.5773504 0.5773506 -0.57735
vn -0.5773503 0.5773506 -0.57735
vn 0.5773504 0.5773506 -0.57735
vn 0.5773503 0.5773506 -0.57735
vn 0.5773503 0.5773506 -0.57735
vn -0.5773503 -0.5773506 -0.57735
vn -0.5773503 -0.5773506 -0.57735
vn -0.5773504 -0.5773506 -0.57735
vn 0.5773503 -0.5773506 -0.57735
vn 0.5773503 -0.5773506 -0.57735
vn 0.5773504 -0.5773506 -0.57735

vt 0.2693006 0.0003706443
vt 0.2233627 0.0003706443
vt 0.2233627 0.023335
vt 0.2693006 0.023335
vt 0.2935974 0.09223738
vt 0.3395354 0.09223738
vt 0.3395354 0.06927302
vt 0.2935974 0.06927302
vt 0.2693006 0.023335
vt 0.2693006 0.06927292
vt 0.292265 0.06927292
vt 0.292265 0.023335
vt 0.3306994 0.1159999
vt 0.3766374 0.1159999
vt 0.3766374 0.09303553
vt 0.3306994 0.09303553
vt 0.3077353 0.1159999
vt 0.3077353 0.1619378
vt 0.3306994 0.1619378
vt 0.3306994 0.1159999
vt 0.2693006 0.06927292
vt 0.2233627 0.06927292
vt 0.2233627 0.09223728
vt 0.2693006 0.09223728
vt 0.2605702 0.116
vt 0.3065081 0.116
vt 0.3065081 0.09303583
vt 0.2605702 0.09303583
vt 0.3306994 0.1849022
vt 0.3766374 0.1849022
vt 0.3766374 0.1619378
vt 0.3306994 0.1619378
vt 0.2233627 0.06927292
vt 0.2233627 0.023335
vt 0.2003983 0.023335
vt 0.2003983 0.06927292
vt 0.2605702 0.1849021
vt 0.3065081 0.1849021
vt 0.3065081 0.1619379
vt 0.2605702 0.1619379
vt 0.3996015 0.1619378
vt 0.3996015 0.1159999
vt 0.3766374 0.1159999
vt 0.3766374 0.1619378
vt 0.2935974 0.0233351
vt 0.3395354 0.0233351
vt 0.3395354 0.0003707443
vt 0.2935974 0.0003707443
vt 0.2134054 0.09303553
vt 0.2134054 0.1389734
vt 0.2593433 0.1389734
vt 0.2593433 0.09303553
vt 0.2605702 0.116
vt 0.2605702 0.1619379
vt 0.3065081 0.1619379
vt 0.3065081 0.116
vt 0.2003984 0.1397716
vt 0.2003984 0.1857095
vt 0.2463363 0.1857095
vt 0.2463363 0.1397716
vt 0.2935974 0.0233351
vt 0.2935974 0.06927302
vt 0.3395354 0.06927302
vt 0.3395354 0.0233351
vt 0.3306994 0.1159999
vt 0.3306994 0.1619378
vt 0.3766374 0.1619378
vt 0.3766374 0.1159999
vt 0.2233627 0.023335
vt 0.2233627 0.06927292
vt 0.2693006 0.06927292
vt 0.2693006 0.023335
vt 0.2693006 0.0003706443
vt 0.2693006 0.023335
vt 0.292265 0.023335
vt 0.3306994 0.1159999
vt 0.3306994 0.09303553
vt 0.3077353 0.1159999
vt 0.2693006 0.06927292
vt 0.2693006 0.09223728
vt 0.292265 0.06927292
vt 0.3306994 0.1849022
vt 0.3306994 0.1619378
vt 0.3077353 0.1619378
vt 0.2233627 0.06927292
vt 0.2003983 0.06927292
vt 0.2233627 0.09223728
vt 0.3996015 0.1619378
vt 0.3766374 0.1619378
vt 0.3766374 0.1849022
vt 0.2233627 0.023335
vt 0.2233627 0.0003706443
vt 0.2003983 0.023335
vt 0.3766374 0.09303553
vt 0.3766374 0.1159999
vt 0.3996015 0.1159999

f 2/2/2 1/1/1 3/3/3
f 3/3/3 1/1/1 4/4/4
f 6/6/6 5/5/5 7/7/7
f 7/7/7 5/5/5 8/8/8
f 10/10/10 9/9/9 11/11/11
f 11/11/11 9/9/9 12/12/12
f 14/14/14 13/13/13 15/15/15
f 15/15/15 13/13/13 16/16/16
f 18/18/18 17/17/17 19/19/19
f 19/19/19 17/17/17 20/20/20
f 22/22/22 21/21/21 23/23/23
f 23/23/23 21/21/21 24/24/24
f 26/26/26 25/25/25 27/27/27
f 27/27/27 25/25/25 28/28/28
f 30/30/30 29/29/29 31/31/31
f 31/31/31 29/29/29 32/32/32
f 34/34/34 33/33/33 35/35/35
f 35/35/35 33/33/33 36/36/36
f 38/38/38 37/37/37 39/39/39
f 39/39/39 37/37/37 40/40/40
f 42/42/42 41/41/41 43/43/43
f 43/43/43 41/41/41 44/44/44
f 46/46/46 45/45/45 47/47/47
f 47/47/47 45/45/45 48/48/48
f 50/50/50 49/49/49 51/51/51
f 51/51/51 49/49/49 52/52/52
f 54/54/54 53/53/53 55/55/55
f 55/55/55 53/53/53 56/56/56
f 58/58/58 57/57/57 59/59/59
f 59/59/59 57/57/57 60/60/60
f 62/62/62 61/61/61 63/63/63
f 63/63/63 61/61/61 64/64/64
f 66/66/66 65/65/65 67/67/67
f 67/67/67 65/65/65 68/68/68
f 70/70/70 69/69/69 71/71/71
f 71/71/71 69/69/69 72/72/72
f 74/74/74 73/73/73 75/75/75
f 77/77/77 76/76/76 78/78/78
f 80/80/80 79/79/79 81/81/81
f 83/83/83 82/82/82 84/84/84
f 86/86/86 85/85/85 87/87/87
f 89/89/89 88/88/88 90/90/90
f 92/92/92 91/91/91 93/93/93
f 95/95/95 94/94/94 96/96/96
