g _Combined Mesh [TriangleTorus]
v -0.5670328 2.15 0.8508828
v -0.7781412 2.773726 1.91038
v -1.779622 2.773726 -1.043072
v -0.9676253 2.15 -0.3304977
v 0.2557765 2.15 -0.08673066
v 1.278882 2.773726 -0.4336539
v -0.7781412 2.773726 1.91038
v -0.5670328 2.15 0.8508828
v -0.9676253 2.15 -0.3304977
v -1.779622 2.773726 -1.043072
v 1.278882 2.773726 -0.4336539
v 0.2557765 2.15 -0.08673066
v -0.7781412 2.773726 1.91038
v -0.7781412 1.526275 1.91038
v -1.779622 1.526275 -1.043072
v -1.779622 2.773726 -1.043072
v 1.278882 2.773726 -0.4336539
v 1.278882 1.526275 -0.4336539
v -0.7781412 1.526275 1.91038
v -0.7781412 2.773726 1.91038
v -1.779622 2.773726 -1.043072
v -1.779622 1.526275 -1.043072
v 1.278882 1.526275 -0.4336539
v 1.278882 2.773726 -0.4336539
v -0.7781412 1.526275 1.91038
v -0.5670328 2.15 0.8508828
v -0.9676253 2.15 -0.3304977
v -1.779622 1.526275 -1.043072
v 1.278882 1.526275 -0.4336539
v 0.2557765 2.15 -0.08673066
v -0.5670328 2.15 0.8508828
v -0.7781412 1.526275 1.91038
v -1.779622 1.526275 -1.043072
v -0.9676253 2.15 -0.3304977
v 0.2557765 2.15 -0.08673066
v 1.278882 1.526275 -0.4336539

vn 0.7158915 0.6546537 -0.2427505
vn 0.7158915 0.6546538 -0.2427505
vn 0.7158915 0.6546537 -0.2427505
vn 0.7158915 0.6546537 -0.2427505
vn -0.568174 0.6546536 -0.4986052
vn -0.5681739 0.6546535 -0.4986051
vn -0.568174 0.6546536 -0.4986052
vn -0.568174 0.6546536 -0.4986052
vn -0.1477177 0.6546537 0.7413555
vn -0.1477177 0.6546537 0.7413555
vn -0.1477177 0.6546537 0.7413555
vn -0.1477177 0.6546537 0.7413555
vn -0.9470356 0 0.3211288
vn -0.9470356 0 0.3211288
vn -0.9470356 0 0.3211288
vn -0.9470356 0 0.3211288
vn 0.7516235 0 0.6595925
vn 0.7516235 0 0.6595925
vn 0.7516235 0 0.6595925
vn 0.7516235 0 0.6595925
vn 0.1954122 0 -0.9807212
vn 0.1954122 0 -0.9807212
vn 0.1954122 0 -0.9807212
vn 0.1954122 0 -0.9807212
vn 0.7158915 -0.6546537 -0.2427505
vn 0.7158915 -0.6546537 -0.2427505
vn 0.7158915 -0.6546537 -0.2427505
vn 0.7158915 -0.6546537 -0.2427505
vn -0.5681739 -0.6546537 -0.498605
vn -0.5681739 -0.6546537 -0.498605
vn -0.5681739 -0.6546537 -0.498605
vn -0.5681739 -0.6546537 -0.498605
vn -0.1477177 -0.6546537 0.7413555
vn -0.1477177 -0.6546537 0.7413555
vn -0.1477177 -0.6546537 0.7413555
vn -0.1477177 -0.6546537 0.7413555

vt 0.6198185 0.6683342
vt 0.6392386 0.6974644
vt 0.6392386 0.600364
vt 0.6198185 0.6294941
vt 0.6198185 0.6489142
vt 0.6392386 0.6489142
vt 0.6392386 0.6974644
vt 0.6198185 0.6683342
vt 0.6198185 0.6294941
vt 0.6392386 0.600364
vt 0.6392386 0.6489142
vt 0.6198185 0.6489142
vt 0.6794259 0.600364
vt 0.6405858 0.600364
vt 0.6405858 0.6974643
vt 0.6794259 0.6974643
vt 0.7996016 0.6982627
vt 0.7607615 0.6982627
vt 0.7607615 0.782354
vt 0.7996016 0.782354
vt 0.7206939 0.7823537
vt 0.7595344 0.7823537
vt 0.7595344 0.6982627
vt 0.7206939 0.6982627
vt 0.6003985 0.6974644
vt 0.6198185 0.6683342
vt 0.6198185 0.6294941
vt 0.6003985 0.600364
vt 0.7648256 0.6489142
vt 0.7311891 0.6489142
vt 0.6975526 0.6683342
vt 0.6807343 0.6974643
vt 0.6807343 0.600364
vt 0.6975526 0.6294941
vt 0.7311891 0.6489142
vt 0.7648256 0.6489142

f 2/2/2 1/1/1 3/3/3
f 3/3/3 1/1/1 4/4/4
f 6/6/6 5/5/5 7/7/7
f 7/7/7 5/5/5 8/8/8
f 10/10/10 9/9/9 11/11/11
f 11/11/11 9/9/9 12/12/12
f 14/14/14 13/13/13 15/15/15
f 15/15/15 13/13/13 16/16/16
f 18/18/18 17/17/17 19/19/19
f 19/19/19 17/17/17 20/20/20
f 22/22/22 21/21/21 23/23/23
f 23/23/23 21/21/21 24/24/24
f 26/26/26 25/25/25 27/27/27
f 27/27/27 25/25/25 28/28/28
f 30/30/30 29/29/29 31/31/31
f 31/31/31 29/29/29 32/32/32
f 34/34/34 33/33/33 35/35/35
f 35/35/35 33/33/33 36/36/36
